{
 "cells": [
  {
   "cell_type": "code",
   "execution_count": 122,
   "id": "2b31cf19-897b-4335-9bf6-5a11ce0bd85b",
   "metadata": {},
   "outputs": [],
   "source": [
    "import os\n",
    "import subprocess\n",
    "import sys\n",
    "import warnings\n",
    "\n",
    "warnings.filterwarnings(\"ignore\")\n",
    "\n",
    "# charsiu directory adding to path\n",
    "charsiu_dir = '/Users/oishanibandopadhyay/Documents/charsiu-main'\n",
    "charsiu_src = f'{charsiu_dir}/src/'\n",
    "if charsiu_src not in sys.path:\n",
    "    sys.path.append(charsiu_src)\n",
    "\n",
    "# import model\n",
    "from Charsiu import charsiu_forced_aligner\n",
    "\n",
    "# add audio folder\n",
    "audio_folder = '/Users/oishanibandopadhyay/Documents/UCSD/LIGN 214/final_project/nineteenth_participant_audio'\n",
    "\n",
    "# intialize forced aligner\n",
    "os.chdir(charsiu_dir)\n",
    "charsiu = charsiu_forced_aligner(aligner='charsiu/en_w2v2_fc_10ms')\n",
    "\n",
    "# list all wav files that are not 16k\n",
    "audio_files = [f for f in os.listdir(audio_folder) if f.endswith('.wav') and not f.endswith('_16k.wav')]\n"
   ]
  },
  {
   "cell_type": "code",
   "execution_count": 123,
   "id": "6cdd298c-3f01-4711-9530-a24ec8e4906c",
   "metadata": {},
   "outputs": [
    {
     "name": "stdout",
     "output_type": "stream",
     "text": [
      "Resampling fa55ab21ba76f0e1d8bf041b-48-ExpPromptResp6.wav to 16kHz...\n",
      "Resampled audio saved to /Users/oishanibandopadhyay/Documents/UCSD/LIGN 214/final_project/nineteenth_participant_audio/fa55ab21ba76f0e1d8bf041b-48-ExpPromptResp6_16k.wav\n",
      "Aligning audio and transcription for fa55ab21ba76f0e1d8bf041b-48-ExpPromptResp6...\n"
     ]
    },
    {
     "name": "stderr",
     "output_type": "stream",
     "text": [
      "ffmpeg version 7.1.1 Copyright (c) 2000-2025 the FFmpeg developers\n",
      "  built with Apple clang version 15.0.0 (clang-1500.1.0.2.5)\n",
      "  configuration: --prefix=/opt/homebrew/Cellar/ffmpeg/7.1.1_1 --enable-shared --enable-pthreads --enable-version3 --cc=clang --host-cflags= --host-ldflags='-Wl,-ld_classic' --enable-ffplay --enable-gnutls --enable-gpl --enable-libaom --enable-libaribb24 --enable-libbluray --enable-libdav1d --enable-libharfbuzz --enable-libjxl --enable-libmp3lame --enable-libopus --enable-librav1e --enable-librist --enable-librubberband --enable-libsnappy --enable-libsrt --enable-libssh --enable-libsvtav1 --enable-libtesseract --enable-libtheora --enable-libvidstab --enable-libvmaf --enable-libvorbis --enable-libvpx --enable-libwebp --enable-libx264 --enable-libx265 --enable-libxml2 --enable-libxvid --enable-lzma --enable-libfontconfig --enable-libfreetype --enable-frei0r --enable-libass --enable-libopencore-amrnb --enable-libopencore-amrwb --enable-libopenjpeg --enable-libspeex --enable-libsoxr --enable-libzmq --enable-libzimg --disable-libjack --disable-indev=jack --enable-videotoolbox --enable-audiotoolbox --enable-neon\n",
      "  libavutil      59. 39.100 / 59. 39.100\n",
      "  libavcodec     61. 19.101 / 61. 19.101\n",
      "  libavformat    61.  7.100 / 61.  7.100\n",
      "  libavdevice    61.  3.100 / 61.  3.100\n",
      "  libavfilter    10.  4.100 / 10.  4.100\n",
      "  libswscale      8.  3.100 /  8.  3.100\n",
      "  libswresample   5.  3.100 /  5.  3.100\n",
      "  libpostproc    58.  3.100 / 58.  3.100\n",
      "[aist#0:0/pcm_s16le @ 0x145104dc0] Guessed Channel Layout: mono\n",
      "Input #0, wav, from '/Users/oishanibandopadhyay/Documents/UCSD/LIGN 214/final_project/nineteenth_participant_audio/fa55ab21ba76f0e1d8bf041b-48-ExpPromptResp6.wav':\n",
      "  Metadata:\n",
      "    encoder         : Lavf61.7.100\n",
      "  Duration: 00:00:04.02, bitrate: 768 kb/s\n",
      "  Stream #0:0: Audio: pcm_s16le ([1][0][0][0] / 0x0001), 48000 Hz, mono, s16, 768 kb/s\n",
      "Stream mapping:\n",
      "  Stream #0:0 -> #0:0 (pcm_s16le (native) -> pcm_s16le (native))\n",
      "Press [q] to stop, [?] for help\n",
      "Output #0, wav, to '/Users/oishanibandopadhyay/Documents/UCSD/LIGN 214/final_project/nineteenth_participant_audio/fa55ab21ba76f0e1d8bf041b-48-ExpPromptResp6_16k.wav':\n",
      "  Metadata:\n",
      "    ISFT            : Lavf61.7.100\n",
      "  Stream #0:0: Audio: pcm_s16le ([1][0][0][0] / 0x0001), 16000 Hz, mono, s16, 256 kb/s\n",
      "      Metadata:\n",
      "        encoder         : Lavc61.19.101 pcm_s16le\n",
      "[out#0/wav @ 0x600001f70000] video:0KiB audio:126KiB subtitle:0KiB other streams:0KiB global headers:0KiB muxing overhead: 0.060634%\n",
      "size=     126KiB time=00:00:04.02 bitrate= 256.2kbits/s speed= 828x    \n"
     ]
    },
    {
     "name": "stdout",
     "output_type": "stream",
     "text": [
      "Alignment output has been saved to /Users/oishanibandopadhyay/Documents/UCSD/LIGN 214/final_project/nineteenth_participant_audio/fa55ab21ba76f0e1d8bf041b-48-ExpPromptResp6.TextGrid\n",
      "TextGrid saved to /Users/oishanibandopadhyay/Documents/UCSD/LIGN 214/final_project/nineteenth_participant_audio/fa55ab21ba76f0e1d8bf041b-48-ExpPromptResp6.TextGrid\n",
      "Resampling fa55ab21ba76f0e1d8bf041b-53-ExpPromptResp1.wav to 16kHz...\n",
      "Resampled audio saved to /Users/oishanibandopadhyay/Documents/UCSD/LIGN 214/final_project/nineteenth_participant_audio/fa55ab21ba76f0e1d8bf041b-53-ExpPromptResp1_16k.wav\n",
      "Aligning audio and transcription for fa55ab21ba76f0e1d8bf041b-53-ExpPromptResp1...\n"
     ]
    },
    {
     "name": "stderr",
     "output_type": "stream",
     "text": [
      "ffmpeg version 7.1.1 Copyright (c) 2000-2025 the FFmpeg developers\n",
      "  built with Apple clang version 15.0.0 (clang-1500.1.0.2.5)\n",
      "  configuration: --prefix=/opt/homebrew/Cellar/ffmpeg/7.1.1_1 --enable-shared --enable-pthreads --enable-version3 --cc=clang --host-cflags= --host-ldflags='-Wl,-ld_classic' --enable-ffplay --enable-gnutls --enable-gpl --enable-libaom --enable-libaribb24 --enable-libbluray --enable-libdav1d --enable-libharfbuzz --enable-libjxl --enable-libmp3lame --enable-libopus --enable-librav1e --enable-librist --enable-librubberband --enable-libsnappy --enable-libsrt --enable-libssh --enable-libsvtav1 --enable-libtesseract --enable-libtheora --enable-libvidstab --enable-libvmaf --enable-libvorbis --enable-libvpx --enable-libwebp --enable-libx264 --enable-libx265 --enable-libxml2 --enable-libxvid --enable-lzma --enable-libfontconfig --enable-libfreetype --enable-frei0r --enable-libass --enable-libopencore-amrnb --enable-libopencore-amrwb --enable-libopenjpeg --enable-libspeex --enable-libsoxr --enable-libzmq --enable-libzimg --disable-libjack --disable-indev=jack --enable-videotoolbox --enable-audiotoolbox --enable-neon\n",
      "  libavutil      59. 39.100 / 59. 39.100\n",
      "  libavcodec     61. 19.101 / 61. 19.101\n",
      "  libavformat    61.  7.100 / 61.  7.100\n",
      "  libavdevice    61.  3.100 / 61.  3.100\n",
      "  libavfilter    10.  4.100 / 10.  4.100\n",
      "  libswscale      8.  3.100 /  8.  3.100\n",
      "  libswresample   5.  3.100 /  5.  3.100\n",
      "  libpostproc    58.  3.100 / 58.  3.100\n",
      "[aist#0:0/pcm_s16le @ 0x11fe046a0] Guessed Channel Layout: mono\n",
      "Input #0, wav, from '/Users/oishanibandopadhyay/Documents/UCSD/LIGN 214/final_project/nineteenth_participant_audio/fa55ab21ba76f0e1d8bf041b-53-ExpPromptResp1.wav':\n",
      "  Metadata:\n",
      "    encoder         : Lavf61.7.100\n",
      "  Duration: 00:00:03.90, bitrate: 768 kb/s\n",
      "  Stream #0:0: Audio: pcm_s16le ([1][0][0][0] / 0x0001), 48000 Hz, mono, s16, 768 kb/s\n",
      "Stream mapping:\n",
      "  Stream #0:0 -> #0:0 (pcm_s16le (native) -> pcm_s16le (native))\n",
      "Press [q] to stop, [?] for help\n",
      "Output #0, wav, to '/Users/oishanibandopadhyay/Documents/UCSD/LIGN 214/final_project/nineteenth_participant_audio/fa55ab21ba76f0e1d8bf041b-53-ExpPromptResp1_16k.wav':\n",
      "  Metadata:\n",
      "    ISFT            : Lavf61.7.100\n",
      "  Stream #0:0: Audio: pcm_s16le ([1][0][0][0] / 0x0001), 16000 Hz, mono, s16, 256 kb/s\n",
      "      Metadata:\n",
      "        encoder         : Lavc61.19.101 pcm_s16le\n",
      "[out#0/wav @ 0x600000568000] video:0KiB audio:122KiB subtitle:0KiB other streams:0KiB global headers:0KiB muxing overhead: 0.062500%\n",
      "size=     122KiB time=00:00:03.90 bitrate= 256.2kbits/s speed=1.44e+03x    \n"
     ]
    },
    {
     "name": "stdout",
     "output_type": "stream",
     "text": [
      "Alignment output has been saved to /Users/oishanibandopadhyay/Documents/UCSD/LIGN 214/final_project/nineteenth_participant_audio/fa55ab21ba76f0e1d8bf041b-53-ExpPromptResp1.TextGrid\n",
      "TextGrid saved to /Users/oishanibandopadhyay/Documents/UCSD/LIGN 214/final_project/nineteenth_participant_audio/fa55ab21ba76f0e1d8bf041b-53-ExpPromptResp1.TextGrid\n",
      "Resampling fa55ab21ba76f0e1d8bf041b-50-ExpPromptResp2.wav to 16kHz...\n",
      "Resampled audio saved to /Users/oishanibandopadhyay/Documents/UCSD/LIGN 214/final_project/nineteenth_participant_audio/fa55ab21ba76f0e1d8bf041b-50-ExpPromptResp2_16k.wav\n",
      "Aligning audio and transcription for fa55ab21ba76f0e1d8bf041b-50-ExpPromptResp2...\n"
     ]
    },
    {
     "name": "stderr",
     "output_type": "stream",
     "text": [
      "ffmpeg version 7.1.1 Copyright (c) 2000-2025 the FFmpeg developers\n",
      "  built with Apple clang version 15.0.0 (clang-1500.1.0.2.5)\n",
      "  configuration: --prefix=/opt/homebrew/Cellar/ffmpeg/7.1.1_1 --enable-shared --enable-pthreads --enable-version3 --cc=clang --host-cflags= --host-ldflags='-Wl,-ld_classic' --enable-ffplay --enable-gnutls --enable-gpl --enable-libaom --enable-libaribb24 --enable-libbluray --enable-libdav1d --enable-libharfbuzz --enable-libjxl --enable-libmp3lame --enable-libopus --enable-librav1e --enable-librist --enable-librubberband --enable-libsnappy --enable-libsrt --enable-libssh --enable-libsvtav1 --enable-libtesseract --enable-libtheora --enable-libvidstab --enable-libvmaf --enable-libvorbis --enable-libvpx --enable-libwebp --enable-libx264 --enable-libx265 --enable-libxml2 --enable-libxvid --enable-lzma --enable-libfontconfig --enable-libfreetype --enable-frei0r --enable-libass --enable-libopencore-amrnb --enable-libopencore-amrwb --enable-libopenjpeg --enable-libspeex --enable-libsoxr --enable-libzmq --enable-libzimg --disable-libjack --disable-indev=jack --enable-videotoolbox --enable-audiotoolbox --enable-neon\n",
      "  libavutil      59. 39.100 / 59. 39.100\n",
      "  libavcodec     61. 19.101 / 61. 19.101\n",
      "  libavformat    61.  7.100 / 61.  7.100\n",
      "  libavdevice    61.  3.100 / 61.  3.100\n",
      "  libavfilter    10.  4.100 / 10.  4.100\n",
      "  libswscale      8.  3.100 /  8.  3.100\n",
      "  libswresample   5.  3.100 /  5.  3.100\n",
      "  libpostproc    58.  3.100 / 58.  3.100\n",
      "[aist#0:0/pcm_s16le @ 0x11b604080] Guessed Channel Layout: mono\n",
      "Input #0, wav, from '/Users/oishanibandopadhyay/Documents/UCSD/LIGN 214/final_project/nineteenth_participant_audio/fa55ab21ba76f0e1d8bf041b-50-ExpPromptResp2.wav':\n",
      "  Metadata:\n",
      "    encoder         : Lavf61.7.100\n",
      "  Duration: 00:00:04.08, bitrate: 768 kb/s\n",
      "  Stream #0:0: Audio: pcm_s16le ([1][0][0][0] / 0x0001), 48000 Hz, mono, s16, 768 kb/s\n",
      "Stream mapping:\n",
      "  Stream #0:0 -> #0:0 (pcm_s16le (native) -> pcm_s16le (native))\n",
      "Press [q] to stop, [?] for help\n",
      "Output #0, wav, to '/Users/oishanibandopadhyay/Documents/UCSD/LIGN 214/final_project/nineteenth_participant_audio/fa55ab21ba76f0e1d8bf041b-50-ExpPromptResp2_16k.wav':\n",
      "  Metadata:\n",
      "    ISFT            : Lavf61.7.100\n",
      "  Stream #0:0: Audio: pcm_s16le ([1][0][0][0] / 0x0001), 16000 Hz, mono, s16, 256 kb/s\n",
      "      Metadata:\n",
      "        encoder         : Lavc61.19.101 pcm_s16le\n",
      "[out#0/wav @ 0x600003d54000] video:0KiB audio:128KiB subtitle:0KiB other streams:0KiB global headers:0KiB muxing overhead: 0.059743%\n",
      "size=     128KiB time=00:00:04.08 bitrate= 256.2kbits/s speed=1.59e+03x    \n"
     ]
    },
    {
     "name": "stdout",
     "output_type": "stream",
     "text": [
      "Alignment output has been saved to /Users/oishanibandopadhyay/Documents/UCSD/LIGN 214/final_project/nineteenth_participant_audio/fa55ab21ba76f0e1d8bf041b-50-ExpPromptResp2.TextGrid\n",
      "TextGrid saved to /Users/oishanibandopadhyay/Documents/UCSD/LIGN 214/final_project/nineteenth_participant_audio/fa55ab21ba76f0e1d8bf041b-50-ExpPromptResp2.TextGrid\n",
      "Resampling fa55ab21ba76f0e1d8bf041b-59-ExpPromptResp7.wav to 16kHz...\n",
      "Resampled audio saved to /Users/oishanibandopadhyay/Documents/UCSD/LIGN 214/final_project/nineteenth_participant_audio/fa55ab21ba76f0e1d8bf041b-59-ExpPromptResp7_16k.wav\n",
      "Aligning audio and transcription for fa55ab21ba76f0e1d8bf041b-59-ExpPromptResp7...\n"
     ]
    },
    {
     "name": "stderr",
     "output_type": "stream",
     "text": [
      "ffmpeg version 7.1.1 Copyright (c) 2000-2025 the FFmpeg developers\n",
      "  built with Apple clang version 15.0.0 (clang-1500.1.0.2.5)\n",
      "  configuration: --prefix=/opt/homebrew/Cellar/ffmpeg/7.1.1_1 --enable-shared --enable-pthreads --enable-version3 --cc=clang --host-cflags= --host-ldflags='-Wl,-ld_classic' --enable-ffplay --enable-gnutls --enable-gpl --enable-libaom --enable-libaribb24 --enable-libbluray --enable-libdav1d --enable-libharfbuzz --enable-libjxl --enable-libmp3lame --enable-libopus --enable-librav1e --enable-librist --enable-librubberband --enable-libsnappy --enable-libsrt --enable-libssh --enable-libsvtav1 --enable-libtesseract --enable-libtheora --enable-libvidstab --enable-libvmaf --enable-libvorbis --enable-libvpx --enable-libwebp --enable-libx264 --enable-libx265 --enable-libxml2 --enable-libxvid --enable-lzma --enable-libfontconfig --enable-libfreetype --enable-frei0r --enable-libass --enable-libopencore-amrnb --enable-libopencore-amrwb --enable-libopenjpeg --enable-libspeex --enable-libsoxr --enable-libzmq --enable-libzimg --disable-libjack --disable-indev=jack --enable-videotoolbox --enable-audiotoolbox --enable-neon\n",
      "  libavutil      59. 39.100 / 59. 39.100\n",
      "  libavcodec     61. 19.101 / 61. 19.101\n",
      "  libavformat    61.  7.100 / 61.  7.100\n",
      "  libavdevice    61.  3.100 / 61.  3.100\n",
      "  libavfilter    10.  4.100 / 10.  4.100\n",
      "  libswscale      8.  3.100 /  8.  3.100\n",
      "  libswresample   5.  3.100 /  5.  3.100\n",
      "  libpostproc    58.  3.100 / 58.  3.100\n",
      "[aist#0:0/pcm_s16le @ 0x133e04080] Guessed Channel Layout: mono\n",
      "Input #0, wav, from '/Users/oishanibandopadhyay/Documents/UCSD/LIGN 214/final_project/nineteenth_participant_audio/fa55ab21ba76f0e1d8bf041b-59-ExpPromptResp7.wav':\n",
      "  Metadata:\n",
      "    encoder         : Lavf61.7.100\n",
      "  Duration: 00:00:06.06, bitrate: 768 kb/s\n",
      "  Stream #0:0: Audio: pcm_s16le ([1][0][0][0] / 0x0001), 48000 Hz, mono, s16, 768 kb/s\n",
      "Stream mapping:\n",
      "  Stream #0:0 -> #0:0 (pcm_s16le (native) -> pcm_s16le (native))\n",
      "Press [q] to stop, [?] for help\n",
      "Output #0, wav, to '/Users/oishanibandopadhyay/Documents/UCSD/LIGN 214/final_project/nineteenth_participant_audio/fa55ab21ba76f0e1d8bf041b-59-ExpPromptResp7_16k.wav':\n",
      "  Metadata:\n",
      "    ISFT            : Lavf61.7.100\n",
      "  Stream #0:0: Audio: pcm_s16le ([1][0][0][0] / 0x0001), 16000 Hz, mono, s16, 256 kb/s\n",
      "      Metadata:\n",
      "        encoder         : Lavc61.19.101 pcm_s16le\n",
      "[out#0/wav @ 0x6000007d8000] video:0KiB audio:189KiB subtitle:0KiB other streams:0KiB global headers:0KiB muxing overhead: 0.040223%\n",
      "size=     189KiB time=00:00:06.06 bitrate= 256.1kbits/s speed=1.81e+03x    \n"
     ]
    },
    {
     "name": "stdout",
     "output_type": "stream",
     "text": [
      "Alignment output has been saved to /Users/oishanibandopadhyay/Documents/UCSD/LIGN 214/final_project/nineteenth_participant_audio/fa55ab21ba76f0e1d8bf041b-59-ExpPromptResp7.TextGrid\n",
      "TextGrid saved to /Users/oishanibandopadhyay/Documents/UCSD/LIGN 214/final_project/nineteenth_participant_audio/fa55ab21ba76f0e1d8bf041b-59-ExpPromptResp7.TextGrid\n",
      "Resampling fa55ab21ba76f0e1d8bf041b-56-LocPromptResp34.wav to 16kHz...\n",
      "Resampled audio saved to /Users/oishanibandopadhyay/Documents/UCSD/LIGN 214/final_project/nineteenth_participant_audio/fa55ab21ba76f0e1d8bf041b-56-LocPromptResp34_16k.wav\n",
      "Aligning audio and transcription for fa55ab21ba76f0e1d8bf041b-56-LocPromptResp34...\n"
     ]
    },
    {
     "name": "stderr",
     "output_type": "stream",
     "text": [
      "ffmpeg version 7.1.1 Copyright (c) 2000-2025 the FFmpeg developers\n",
      "  built with Apple clang version 15.0.0 (clang-1500.1.0.2.5)\n",
      "  configuration: --prefix=/opt/homebrew/Cellar/ffmpeg/7.1.1_1 --enable-shared --enable-pthreads --enable-version3 --cc=clang --host-cflags= --host-ldflags='-Wl,-ld_classic' --enable-ffplay --enable-gnutls --enable-gpl --enable-libaom --enable-libaribb24 --enable-libbluray --enable-libdav1d --enable-libharfbuzz --enable-libjxl --enable-libmp3lame --enable-libopus --enable-librav1e --enable-librist --enable-librubberband --enable-libsnappy --enable-libsrt --enable-libssh --enable-libsvtav1 --enable-libtesseract --enable-libtheora --enable-libvidstab --enable-libvmaf --enable-libvorbis --enable-libvpx --enable-libwebp --enable-libx264 --enable-libx265 --enable-libxml2 --enable-libxvid --enable-lzma --enable-libfontconfig --enable-libfreetype --enable-frei0r --enable-libass --enable-libopencore-amrnb --enable-libopencore-amrwb --enable-libopenjpeg --enable-libspeex --enable-libsoxr --enable-libzmq --enable-libzimg --disable-libjack --disable-indev=jack --enable-videotoolbox --enable-audiotoolbox --enable-neon\n",
      "  libavutil      59. 39.100 / 59. 39.100\n",
      "  libavcodec     61. 19.101 / 61. 19.101\n",
      "  libavformat    61.  7.100 / 61.  7.100\n",
      "  libavdevice    61.  3.100 / 61.  3.100\n",
      "  libavfilter    10.  4.100 / 10.  4.100\n",
      "  libswscale      8.  3.100 /  8.  3.100\n",
      "  libswresample   5.  3.100 /  5.  3.100\n",
      "  libpostproc    58.  3.100 / 58.  3.100\n",
      "[aist#0:0/pcm_s16le @ 0x159704080] Guessed Channel Layout: mono\n",
      "Input #0, wav, from '/Users/oishanibandopadhyay/Documents/UCSD/LIGN 214/final_project/nineteenth_participant_audio/fa55ab21ba76f0e1d8bf041b-56-LocPromptResp34.wav':\n",
      "  Metadata:\n",
      "    encoder         : Lavf61.7.100\n",
      "  Duration: 00:00:04.62, bitrate: 768 kb/s\n",
      "  Stream #0:0: Audio: pcm_s16le ([1][0][0][0] / 0x0001), 48000 Hz, mono, s16, 768 kb/s\n",
      "Stream mapping:\n",
      "  Stream #0:0 -> #0:0 (pcm_s16le (native) -> pcm_s16le (native))\n",
      "Press [q] to stop, [?] for help\n",
      "Output #0, wav, to '/Users/oishanibandopadhyay/Documents/UCSD/LIGN 214/final_project/nineteenth_participant_audio/fa55ab21ba76f0e1d8bf041b-56-LocPromptResp34_16k.wav':\n",
      "  Metadata:\n",
      "    ISFT            : Lavf61.7.100\n",
      "  Stream #0:0: Audio: pcm_s16le ([1][0][0][0] / 0x0001), 16000 Hz, mono, s16, 256 kb/s\n",
      "      Metadata:\n",
      "        encoder         : Lavc61.19.101 pcm_s16le\n",
      "[out#0/wav @ 0x6000007c4000] video:0KiB audio:144KiB subtitle:0KiB other streams:0KiB global headers:0KiB muxing overhead: 0.052760%\n",
      "size=     144KiB time=00:00:04.62 bitrate= 256.1kbits/s speed=1.67e+03x    \n"
     ]
    },
    {
     "name": "stdout",
     "output_type": "stream",
     "text": [
      "Alignment output has been saved to /Users/oishanibandopadhyay/Documents/UCSD/LIGN 214/final_project/nineteenth_participant_audio/fa55ab21ba76f0e1d8bf041b-56-LocPromptResp34.TextGrid\n",
      "TextGrid saved to /Users/oishanibandopadhyay/Documents/UCSD/LIGN 214/final_project/nineteenth_participant_audio/fa55ab21ba76f0e1d8bf041b-56-LocPromptResp34.TextGrid\n",
      "\n",
      "Batch processing complete!\n"
     ]
    }
   ],
   "source": [
    "# file processing for every file in folder\n",
    "for audio_filename in audio_files:\n",
    "    \n",
    "    # Full path of the input audio\n",
    "    input_file = os.path.join(audio_folder, audio_filename)\n",
    "    \n",
    "    # Generate output filenames\n",
    "    base_name = audio_filename.rsplit('.', 1)[0]  # remove extension\n",
    "    resampled_filename = f\"{base_name}_16k.wav\"\n",
    "    resampled_file = os.path.join(audio_folder, resampled_filename)\n",
    "    \n",
    "    txt_filename = f\"{base_name}.txt\"\n",
    "    txt_file = os.path.join(audio_folder, txt_filename)\n",
    "    \n",
    "    textgrid_filename = f\"{base_name}.TextGrid\"\n",
    "    textgrid_file = os.path.join(audio_folder, textgrid_filename)\n",
    "\n",
    "    # check if 16k audio exists\n",
    "    if os.path.exists(resampled_file):\n",
    "        print(f\"16k file already exists for {base_name}, skipping resampling...\")\n",
    "    else:\n",
    "        print(f\"Resampling {audio_filename} to 16kHz...\")\n",
    "        cmd = [\n",
    "            \"ffmpeg\",\n",
    "            \"-i\", input_file,\n",
    "            \"-ar\", \"16000\",\n",
    "            \"-ac\", \"1\",\n",
    "            \"-sample_fmt\", \"s16\",\n",
    "            resampled_file\n",
    "        ]\n",
    "\n",
    "        try:\n",
    "            subprocess.run(cmd, check=True)\n",
    "            print(f\"Resampled audio saved to {resampled_file}\")\n",
    "        except subprocess.CalledProcessError as e:\n",
    "            print(f\"Error resampling {audio_filename}: {e}\")\n",
    "            continue\n",
    "\n",
    "    # load corresponding text file\n",
    "    if not os.path.exists(txt_file):\n",
    "        print(f\"Missing transcription file for {base_name}! Skipping...\")\n",
    "        continue\n",
    "\n",
    "    with open(txt_file, 'r') as f:\n",
    "        text = f.read().strip()\n",
    "\n",
    "    # check if TextGrid exists\n",
    "    if os.path.exists(textgrid_file):\n",
    "        print(f\"TextGrid already exists for {base_name}, skipping alignment...\")\n",
    "        continue\n",
    "\n",
    "    # perform forced alignment\n",
    "    print(f\"Aligning audio and transcription for {base_name}...\")\n",
    "\n",
    "    try:\n",
    "        # Run alignment\n",
    "        alignment = charsiu.align(audio=resampled_file, text=text)\n",
    "        \n",
    "        # Save the alignment to TextGrid\n",
    "        charsiu.serve(audio=resampled_file, text=text, save_to=textgrid_file)\n",
    "        print(f\"TextGrid saved to {textgrid_file}\")\n",
    "        \n",
    "    except Exception as e:\n",
    "        print(f\"Error aligning {base_name}: {e}\")\n",
    "        continue\n",
    "\n",
    "print(\"\\nBatch processing complete!\")"
   ]
  },
  {
   "cell_type": "code",
   "execution_count": null,
   "id": "e6d80319-52d5-4286-9a7e-f6e7fb350881",
   "metadata": {},
   "outputs": [],
   "source": []
  }
 ],
 "metadata": {
  "kernelspec": {
   "display_name": "Python 3 (ipykernel)",
   "language": "python",
   "name": "python3"
  },
  "language_info": {
   "codemirror_mode": {
    "name": "ipython",
    "version": 3
   },
   "file_extension": ".py",
   "mimetype": "text/x-python",
   "name": "python",
   "nbconvert_exporter": "python",
   "pygments_lexer": "ipython3",
   "version": "3.12.4"
  }
 },
 "nbformat": 4,
 "nbformat_minor": 5
}
